<?xml version="1.0" standalone="no"?>
<!DOCTYPE svg PUBLIC "-//W3C//DTD SVG 20010904//EN"
 "http://www.w3.org/TR/2001/REC-SVG-20010904/DTD/svg10.dtd">
<svg version="1.0" xmlns="http://www.w3.org/2000/svg"
 width="1500.000000pt" height="257.000000pt" viewBox="0 0 1500.000000 257.000000"
 preserveAspectRatio="xMidYMid meet">
<metadata>
Created by potrace 1.15, written by Peter Selinger 2001-2017
</metadata>
<g transform="translate(0.000000,257.000000) scale(0.100000,-0.100000)"
fill="#000000" stroke="none">
<path d="M7995 2199 c-110 -21 -201 -38 -202 -39 -2 0 -3 -7 -3 -16 0 -12 6
-15 23 -11 12 3 37 8 55 12 l32 7 0 -666 0 -666 -55 0 c-42 0 -55 -3 -55 -15
0 -13 36 -15 265 -15 229 0 265 2 265 15 0 12 -13 15 -55 15 l-55 0 0 710 c0
391 -3 710 -7 709 -5 -1 -98 -18 -208 -40z"/>
<path d="M8635 2199 c-110 -21 -201 -38 -202 -39 -2 0 -3 -7 -3 -16 0 -12 6
-15 23 -11 12 3 37 8 55 12 l32 7 0 -666 0 -666 -55 0 c-42 0 -55 -3 -55 -15
0 -13 36 -15 265 -15 229 0 265 2 265 15 0 12 -13 15 -55 15 l-55 0 0 710 c0
391 -3 710 -7 709 -5 -1 -98 -18 -208 -40z"/>
<path d="M971 2189 c-85 -27 -177 -115 -209 -200 -22 -59 -42 -181 -42 -255
l0 -44 -55 0 c-42 0 -55 -3 -55 -15 0 -12 13 -15 55 -15 l55 0 0 -415 0 -415
-55 0 c-42 0 -55 -3 -55 -15 0 -13 37 -15 270 -15 229 0 270 2 270 15 0 10
-15 15 -57 17 l-58 3 -3 413 -2 412 60 0 c46 0 60 3 60 15 0 10 -15 15 -57 17
l-58 3 -6 135 c-4 74 -10 171 -14 215 -7 78 -7 81 19 104 19 18 37 24 71 24
57 0 80 -18 42 -32 -52 -20 -62 -82 -21 -130 22 -26 33 -31 69 -31 125 0 141
156 22 210 -57 26 -162 25 -246 -1z"/>
<path d="M11980 2148 c-115 -58 -123 -203 -17 -282 21 -16 43 -21 87 -21 66 0
99 18 138 75 31 46 31 124 -1 171 -24 37 -97 79 -137 79 -14 0 -46 -10 -70
-22z"/>
<path d="M11354 1979 c-45 -158 -190 -289 -321 -289 -40 0 -53 -4 -53 -15 0
-11 13 -15 54 -15 l55 0 3 -317 c3 -274 6 -324 21 -363 55 -139 156 -200 337
-200 73 0 94 4 138 26 57 28 98 84 109 147 7 44 -13 58 -28 20 -31 -78 -41
-95 -71 -113 -81 -49 -165 -5 -187 98 -7 33 -11 174 -11 377 l0 325 75 0 c60
0 75 3 75 15 0 12 -15 15 -75 15 l-75 0 0 175 c0 146 -2 175 -14 175 -10 0
-21 -22 -32 -61z"/>
<path d="M11990 1726 c-164 -26 -195 -34 -198 -49 -3 -14 1 -17 20 -13 13 3
38 7 56 10 l32 6 0 -425 0 -425 -55 0 c-42 0 -55 -3 -55 -15 0 -13 36 -15 265
-15 229 0 265 2 265 15 0 12 -13 15 -55 15 l-55 0 0 465 c0 366 -3 465 -12
464 -7 -1 -101 -15 -208 -33z"/>
<path d="M1490 1709 c-91 -15 -180 -31 -197 -34 -20 -4 -33 -12 -33 -21 0 -13
9 -14 55 -9 l55 7 0 -411 0 -411 -55 0 c-42 0 -55 -3 -55 -15 0 -13 37 -15
270 -15 233 0 270 2 270 15 0 12 -13 15 -60 15 l-60 0 0 308 c0 170 4 323 10
342 24 86 102 169 175 186 l30 7 -33 -35 c-109 -115 12 -271 164 -213 57 21
84 62 84 125 0 120 -114 185 -262 150 -43 -11 -63 -24 -110 -71 l-58 -57 0 84
c0 61 -3 84 -12 83 -7 -1 -87 -14 -178 -30z"/>
<path d="M2525 1696 c-229 -56 -373 -280 -337 -526 23 -161 106 -276 247 -346
70 -35 84 -38 184 -42 160 -7 277 33 370 126 49 49 108 153 96 171 -12 21 -25
10 -65 -53 -67 -106 -134 -156 -254 -191 -75 -22 -166 -17 -197 11 -43 38 -51
79 -57 276 l-5 188 307 0 c291 0 306 1 306 18 0 29 -37 130 -64 177 -31 51
-111 127 -164 154 -93 47 -257 64 -367 37z m204 -52 c39 -33 51 -77 51 -197
l0 -98 -132 3 -133 3 2 112 c2 161 29 203 129 203 42 0 59 -5 83 -26z"/>
<path d="M4450 1699 c-71 -12 -153 -52 -176 -87 -24 -36 -24 -115 0 -141 25
-27 80 -44 120 -37 83 16 110 122 43 176 -21 18 -21 19 -4 37 22 22 172 32
207 13 37 -20 50 -69 50 -195 l0 -115 -107 0 c-212 -1 -305 -29 -382 -116
-129 -146 -76 -366 105 -434 50 -18 74 -21 154 -18 100 4 151 22 213 74 l29
24 27 -28 c45 -50 88 -65 186 -70 147 -7 223 28 246 110 16 59 -5 74 -27 19
-25 -63 -73 -80 -110 -40 -18 20 -19 44 -24 333 -5 296 -6 313 -27 352 -29 55
-81 98 -140 118 -98 32 -268 43 -383 25z m240 -583 l0 -194 -40 -34 c-76 -66
-143 -68 -177 -6 -15 27 -18 57 -18 163 0 117 2 135 24 178 32 65 69 87 149
87 l62 0 0 -194z"/>
<path d="M6171 1695 c-291 -82 -426 -408 -285 -687 51 -100 170 -191 285 -217
63 -15 205 -13 267 3 100 27 200 103 242 186 36 71 40 87 25 100 -11 9 -19 1
-40 -44 -66 -139 -242 -238 -379 -212 -20 4 -52 21 -71 37 -54 47 -66 103 -72
319 -8 293 17 426 91 471 54 33 213 23 255 -16 11 -11 7 -16 -23 -30 -44 -21
-66 -59 -66 -116 0 -33 6 -47 34 -75 31 -31 40 -34 90 -34 47 0 61 4 88 29 27
24 32 36 35 87 3 46 0 66 -16 90 -26 43 -76 78 -136 99 -71 24 -253 30 -324
10z"/>
<path d="M7105 1696 c-208 -52 -337 -225 -337 -451 1 -198 92 -349 259 -427
57 -27 81 -32 168 -36 56 -2 125 1 154 7 126 27 241 115 295 226 137 282 -2
613 -285 680 -76 18 -185 18 -254 1z m213 -56 c50 -49 57 -102 57 -405 0 -295
-6 -333 -55 -388 -25 -29 -34 -32 -83 -32 -73 0 -106 24 -131 96 -17 48 -19
85 -19 324 -1 226 2 279 16 327 24 78 60 108 132 108 46 0 58 -4 83 -30z"/>
<path d="M9385 1696 c-229 -56 -373 -280 -337 -526 23 -161 106 -276 247 -346
70 -35 84 -38 184 -42 160 -7 277 33 370 126 49 49 108 153 96 171 -12 21 -25
10 -65 -53 -68 -107 -152 -168 -268 -196 -70 -16 -155 -9 -183 16 -43 38 -51
79 -57 276 l-5 188 307 0 c291 0 306 1 306 18 0 29 -37 130 -64 177 -31 51
-111 127 -164 154 -93 47 -257 64 -367 37z m204 -52 c39 -33 51 -77 51 -197
l0 -98 -132 3 -133 3 2 112 c2 161 29 203 129 203 42 0 59 -5 83 -26z"/>
<path d="M10400 1700 c-117 -25 -247 -122 -302 -226 -125 -234 -39 -538 184
-646 74 -37 127 -47 228 -48 204 0 344 90 410 265 6 17 5 27 -5 35 -11 9 -19
1 -40 -44 -75 -159 -289 -259 -419 -197 -82 40 -106 131 -105 401 0 260 24
369 93 411 54 33 213 23 255 -16 11 -11 7 -16 -23 -30 -44 -21 -66 -59 -66
-116 0 -33 6 -47 34 -75 31 -31 40 -34 90 -34 47 0 61 4 88 29 27 24 32 36 35
87 3 46 0 66 -16 90 -26 43 -76 78 -136 99 -59 20 -238 29 -305 15z"/>
<path d="M13775 1696 c-229 -56 -373 -280 -337 -526 23 -161 106 -276 247
-346 70 -35 84 -38 184 -42 160 -7 277 33 370 126 49 49 108 153 96 171 -12
21 -25 10 -65 -53 -68 -107 -152 -168 -268 -196 -70 -16 -155 -9 -183 16 -43
38 -51 79 -57 276 l-5 188 307 0 c291 0 306 1 306 18 0 29 -37 130 -64 177
-31 51 -111 127 -164 154 -93 47 -257 64 -367 37z m204 -52 c39 -33 51 -77 51
-197 l0 -98 -132 3 -133 3 2 112 c2 161 29 203 129 203 42 0 59 -5 83 -26z"/>
<path d="M3120 1675 c0 -10 15 -15 56 -17 l56 -3 219 -455 c120 -250 218 -465
219 -478 0 -37 -69 -242 -107 -314 -36 -70 -80 -108 -122 -108 l-22 0 20 26
c26 33 28 109 5 142 -49 71 -181 66 -219 -9 -18 -34 -19 -95 -2 -129 40 -79
213 -95 308 -29 42 29 93 141 152 329 50 161 327 901 362 970 16 32 61 60 95
60 11 0 20 7 20 15 0 13 -20 15 -120 15 -100 0 -120 -2 -120 -15 0 -9 9 -15
23 -15 27 0 57 -28 57 -53 0 -14 -130 -367 -176 -477 l-15 -34 -133 279 -133
280 54 3 c38 2 53 7 53 17 0 13 -40 15 -265 15 -225 0 -265 -2 -265 -15z"/>
<path d="M12410 1675 c0 -12 13 -15 58 -15 l58 0 194 -430 194 -431 35 3 35 3
138 345 c193 485 187 469 222 491 17 10 41 19 54 19 13 0 22 6 22 15 0 13 -20
15 -120 15 -100 0 -120 -2 -120 -15 0 -8 9 -15 21 -15 36 0 59 -19 59 -48 0
-15 -40 -128 -89 -252 l-89 -225 -44 95 c-23 52 -77 169 -119 260 l-76 165 54
3 c38 2 53 7 53 17 0 13 -41 15 -270 15 -233 0 -270 -2 -270 -15z"/>
</g>
</svg>
